<?xml version="1.0" standalone="no"?>
<!DOCTYPE svg PUBLIC "-//W3C//DTD SVG 20010904//EN"
 "http://www.w3.org/TR/2001/REC-SVG-20010904/DTD/svg10.dtd">
<svg version="1.0" xmlns="http://www.w3.org/2000/svg"
 width="1284.000000pt" height="1600.000000pt" viewBox="0 0 1284.000000 1600.000000"
 preserveAspectRatio="xMidYMid meet">

<g transform="translate(0.000000,1600.000000) scale(0.100000,-0.100000)"
fill="#000000" stroke="none">
<path d="M6310 14927 c0 -7 6 -22 14 -33 15 -19 15 -19 38 4 20 19 21 24 8 32
-22 14 -60 12 -60 -3z"/>
<path d="M6455 14910 c3 -5 10 -10 16 -10 5 0 9 5 9 10 0 6 -7 10 -16 10 -8 0
-12 -4 -9 -10z"/>
<path d="M6248 14886 c-10 -7 -18 -19 -18 -27 0 -15 -44 -39 -71 -39 -9 0 -22
6 -28 14 -9 11 -35 14 -109 12 -53 -1 -112 2 -129 6 -25 7 -44 4 -79 -12 -26
-11 -52 -20 -59 -20 -7 0 -35 -6 -61 -14 -27 -8 -88 -20 -136 -26 -88 -12
-112 -25 -60 -33 23 -3 22 -4 -8 -6 -20 0 -53 -10 -75 -21 -22 -11 -54 -20
-73 -20 -18 0 -46 -7 -61 -15 -16 -8 -59 -17 -97 -20 -73 -7 -234 -42 -247
-54 -12 -11 40 -54 86 -71 30 -11 43 -22 45 -38 3 -19 -1 -22 -32 -22 -29 0
-36 4 -36 19 0 11 -4 22 -9 25 -11 7 -96 -28 -105 -42 -3 -5 -16 -7 -30 -5
-16 3 -28 -2 -37 -14 -18 -25 -51 -43 -81 -43 -29 0 -115 -74 -98 -85 6 -4 20
1 31 11 17 15 22 16 29 5 4 -8 15 -11 24 -8 9 4 16 2 16 -4 0 -7 10 -9 25 -5
18 5 25 2 25 -8 0 -23 -76 -96 -100 -96 -26 0 -52 -13 -84 -43 -13 -12 -31
-28 -40 -34 -28 -23 -66 -12 -45 13 6 7 6 14 1 18 -6 3 -15 -1 -22 -9 -7 -8
-18 -15 -24 -15 -20 -1 -63 -45 -81 -83 -12 -26 -30 -44 -54 -55 -49 -22 -48
-22 -27 -38 21 -15 24 -13 -51 -33 -25 -7 -51 -23 -65 -40 -13 -16 -38 -36
-56 -45 -33 -17 -92 -89 -92 -113 0 -7 9 -13 20 -13 30 0 25 -34 -10 -70 -36
-37 -39 -76 -9 -114 18 -23 20 -31 10 -52 -15 -33 -16 -30 31 -61 24 -14 37
-28 30 -31 -6 -2 -12 -10 -12 -17 0 -19 -81 -65 -114 -65 -15 0 -37 -6 -49
-14 -12 -8 -41 -17 -64 -21 -24 -4 -43 -9 -43 -12 0 -9 29 -33 40 -33 9 0 49
-22 70 -38 3 -2 -4 -10 -14 -18 -22 -16 -116 -19 -116 -4 0 6 -7 10 -16 10 -8
0 -12 -4 -9 -10 3 -5 -7 -15 -22 -21 -15 -6 -55 -24 -88 -40 -34 -16 -70 -29
-82 -29 -19 0 -90 -62 -151 -132 -12 -14 -33 -55 -45 -90 -13 -35 -35 -76 -50
-91 -14 -16 -29 -42 -32 -58 -4 -17 -15 -35 -26 -42 -10 -6 -19 -21 -19 -32 0
-11 -12 -42 -26 -69 -21 -39 -26 -65 -29 -130 -2 -68 -8 -94 -40 -166 -21 -47
-40 -97 -42 -113 -3 -15 -9 -30 -14 -33 -5 -3 -9 -18 -9 -33 0 -16 -9 -48 -19
-72 -11 -24 -18 -45 -17 -47 2 -1 15 2 30 8 35 13 69 -17 53 -45 -5 -10 -11
-36 -13 -56 -3 -30 0 -37 11 -32 19 7 19 -6 0 -31 -28 -36 -16 -151 16 -159
10 -3 19 -12 19 -21 0 -9 5 -16 11 -16 7 0 9 -13 4 -37 -12 -67 -11 -177 2
-205 7 -15 13 -43 13 -63 0 -40 11 -45 25 -13 13 28 46 48 52 31 3 -7 11 -13
19 -13 16 0 20 -65 5 -74 -23 -15 -32 -265 -10 -292 5 -7 4 -24 -2 -43 -13
-38 1 -146 28 -221 15 -41 56 -89 76 -90 4 0 22 -16 39 -36 27 -31 74 -66 164
-124 47 -30 79 -191 90 -455 3 -55 9 -122 14 -150 5 -27 14 -108 20 -180 6
-71 16 -149 21 -172 5 -23 9 -60 9 -81 0 -22 7 -56 15 -75 16 -38 19 -86 9
-124 -5 -17 -15 -23 -44 -25 l-38 -3 23 -55 c28 -69 33 -231 9 -289 -13 -30
-14 -44 -3 -88 9 -39 9 -78 2 -155 -6 -57 -10 -157 -9 -223 1 -66 -2 -128 -7
-138 -5 -10 -8 -67 -7 -125 1 -59 1 -122 1 -140 -2 -34 9 -60 33 -85 19 -18
25 -159 8 -165 -7 -2 -12 -10 -12 -18 0 -9 4 -13 9 -9 5 3 12 1 15 -3 6 -10
50 -166 68 -242 5 -25 16 -52 23 -60 19 -23 29 -91 14 -100 -19 -13 -20 -75
-1 -88 9 -6 32 -22 50 -34 22 -15 42 -42 57 -78 107 -253 158 -359 207 -428
30 -42 64 -90 74 -107 11 -16 25 -36 32 -45 27 -30 156 -256 179 -314 17 -41
26 -85 29 -145 2 -47 6 -107 9 -133 7 -58 -15 -118 -43 -118 -44 0 -288 -306
-358 -450 -48 -97 -164 -350 -164 -356 0 -2 -13 -32 -28 -66 -16 -35 -37 -85
-47 -113 -26 -71 -54 -97 -127 -118 -35 -10 -121 -39 -193 -63 -464 -161 -693
-233 -1380 -434 -71 -21 -204 -61 -295 -90 -91 -28 -181 -56 -200 -62 -92 -26
-315 -107 -395 -143 -206 -92 -375 -176 -449 -221 -98 -61 -332 -222 -382
-263 -17 -14 -42 -35 -55 -45 -23 -18 -159 -136 -169 -146 -3 -3 -50 -46 -105
-95 -55 -50 -107 -99 -117 -110 -16 -19 -17 -109 -18 -1527 l0 -1508 6420 0
6420 0 0 1494 0 1495 -27 21 c-16 12 -53 43 -83 70 -152 136 -493 412 -561
456 -24 15 -68 42 -97 61 -69 44 -95 59 -282 158 -272 145 -470 227 -691 285
-59 15 -111 30 -116 33 -10 7 -132 40 -248 68 -44 11 -91 23 -105 28 -14 5
-61 19 -105 31 -44 12 -91 25 -105 30 -14 5 -86 27 -160 50 -279 86 -588 198
-750 273 -30 14 -82 37 -115 51 -33 13 -130 58 -217 100 -86 42 -161 76 -166
76 -16 0 -58 55 -84 107 -12 27 -50 98 -83 158 -34 61 -85 171 -114 245 -69
175 -133 298 -178 343 l-36 36 2 167 c2 259 18 311 130 434 28 30 51 62 51 70
0 23 33 69 99 140 46 49 76 95 120 185 57 117 131 294 131 315 0 17 44 95 76
135 27 34 30 46 41 176 6 77 15 148 19 157 4 9 6 23 5 30 -1 7 12 39 30 69 27
50 30 63 25 107 -15 130 -17 183 -6 211 7 18 14 132 17 289 2 143 9 270 14
283 5 13 9 70 9 126 1 118 19 203 43 199 9 -1 18 2 22 8 12 19 55 -41 55 -77
0 -11 6 -27 13 -38 13 -17 15 -17 45 10 18 16 32 34 32 42 0 15 13 17 38 3 9
-5 34 -17 55 -26 37 -17 39 -16 60 5 20 20 22 31 20 129 -1 109 -15 165 -47
192 -9 7 -16 18 -16 25 0 8 -8 11 -21 8 -12 -3 -24 -1 -28 5 -3 6 -13 12 -21
14 -20 4 -39 29 -40 50 0 15 -13 16 -117 13 -74 -2 -120 1 -124 7 -4 6 9 41
27 78 37 72 37 72 69 400 13 136 20 192 42 327 3 18 11 38 19 44 8 6 14 26 14
43 0 17 7 42 16 54 8 12 12 27 8 33 -6 11 -1 26 36 101 17 36 17 37 -5 58 -26
24 -38 57 -24 66 14 8 11 47 -6 87 -21 51 -19 63 15 77 22 9 30 19 30 38 0 14
5 41 12 59 10 29 10 36 -2 43 -10 6 -15 26 -15 55 0 40 4 49 35 75 l36 30 -10
77 c-10 81 -22 103 -54 103 -24 0 -52 31 -52 58 0 11 -4 23 -9 27 -6 3 -6 17
-1 35 5 18 5 30 -1 30 -5 0 -9 7 -9 15 0 45 31 -3 88 -135 9 -22 11 -23 11 -5
1 34 -29 137 -50 173 -10 18 -19 40 -19 48 0 30 -63 169 -86 189 -12 11 -29
34 -37 50 -20 40 -26 177 -8 198 7 9 16 53 21 99 9 96 16 117 61 178 56 75 60
86 43 118 -21 40 -17 88 11 144 14 28 23 53 20 56 -3 3 -18 -6 -33 -21 -15
-15 -43 -30 -61 -33 -33 -7 -34 -7 -27 22 4 16 11 49 16 72 5 24 19 60 29 80
11 21 21 58 23 85 3 45 2 47 -24 47 -34 0 -37 21 -11 75 17 36 17 37 -5 54
-19 13 -23 25 -21 59 2 31 -3 47 -18 64 -18 19 -21 35 -20 98 1 52 -5 90 -18
124 l-19 49 22 17 c12 10 22 21 22 24 0 11 -28 6 -32 -5 -4 -13 -38 -1 -38 15
0 6 -9 29 -20 51 -11 22 -20 41 -20 42 0 2 9 3 20 3 11 0 20 2 20 4 0 9 -45
52 -71 68 -34 21 -46 76 -25 116 17 32 6 62 -23 62 -10 0 -21 9 -24 20 -6 24
-34 26 -58 4 -16 -14 -18 -14 -22 3 -18 60 -18 83 -3 89 12 5 13 11 6 24 -6
10 -10 26 -10 36 0 9 -19 35 -42 57 -23 22 -39 33 -35 24 4 -10 -1 -18 -14
-22 -25 -8 -25 -25 1 -25 11 0 20 -4 20 -10 0 -12 -50 -10 -67 3 -7 5 -13 18
-13 28 0 10 -10 23 -22 29 -22 11 -22 10 -4 -4 19 -15 19 -16 -7 -16 -18 0
-27 -5 -27 -15 0 -9 -7 -18 -15 -21 -8 -4 -15 -12 -15 -20 0 -8 -4 -14 -10
-14 -12 0 -30 33 -30 56 0 17 -3 22 -59 82 -17 19 -31 40 -31 48 0 8 -7 17
-15 20 -10 4 -13 14 -9 30 4 15 2 24 -5 24 -6 0 -27 16 -46 36 -27 27 -36 32
-41 21 -7 -20 -68 -17 -92 4 -10 8 -26 18 -35 22 -9 3 -17 15 -17 25 0 11 -9
31 -20 45 -11 14 -20 30 -20 36 0 16 20 13 26 -4 4 -8 11 -15 17 -15 6 0 21
-10 34 -21 l22 -22 -12 34 c-7 19 -15 36 -18 39 -19 18 -39 58 -39 81 0 25 3
27 27 20 14 -4 30 -14 34 -22 14 -26 22 -54 20 -64 -2 -5 1 -7 5 -3 4 5 13 -1
21 -12 8 -11 18 -20 24 -20 18 0 8 36 -21 70 -39 45 -38 58 8 65 51 9 55 9 75
0 24 -10 33 1 17 20 -28 33 -72 48 -127 42 -41 -4 -53 -2 -53 8 0 14 -31 26
-120 45 -30 7 -65 19 -78 27 -13 8 -38 13 -55 11 -26 -2 -35 2 -52 29 -19 31
-55 45 -55 22 0 -16 -55 20 -66 44 -11 25 -37 37 -28 13 5 -12 -1 -16 -23 -16
-36 0 -46 9 -32 26 22 26 2 42 -63 49 -35 4 -75 14 -90 21 -31 16 -89 19 -103
5 -6 -6 -34 -7 -65 -3 -30 4 -80 4 -110 0 -30 -4 -124 -5 -209 -3 -137 4 -156
6 -175 24 -12 12 -36 24 -53 27 -29 6 -31 4 -29 -17 2 -13 9 -34 16 -46 11
-18 12 -24 1 -37 -18 -21 -27 -20 -53 6 -90 90 -174 158 -195 158 -13 0 -23
-6 -22 -12 6 -52 -11 -62 -38 -22 -13 21 -14 30 -5 45 18 28 5 63 -29 83 -36
21 -53 13 -21 -10 29 -20 28 -30 -5 -42 -30 -9 -76 10 -119 49 -11 11 -36 21
-54 24 -39 5 -49 13 -31 24 11 7 8 13 -12 26 -14 9 -30 14 -35 11 -4 -2 -28 0
-53 5 -72 17 -70 16 -59 44 7 20 6 25 -5 25 -8 0 -15 5 -15 10 0 13 -11 12
-32 -4z m-923 -321 c33 -12 36 -14 14 -15 -14 0 -34 -7 -45 -15 -10 -8 -31
-15 -46 -15 -15 0 -39 -5 -53 -10 -15 -6 -37 -7 -51 -4 -32 8 -33 47 -1 62 32
15 135 14 182 -3z m742 -100 c8 -9 13 -18 10 -21 -7 -8 -47 15 -47 26 0 15 20
12 37 -5z m1756 -17 c7 -7 13 -22 14 -34 2 -17 -2 -20 -27 -16 -34 5 -55 25
-46 47 7 18 43 20 59 3z m-779 -14 c9 -3 16 -13 16 -21 0 -20 -34 -12 -38 10
-4 19 -1 20 22 11z m-2176 -25 c2 -12 -11 -21 -44 -33 -58 -19 -65 -20 -89 -2
-17 13 -17 14 16 29 52 23 62 26 89 24 14 -1 26 -9 28 -18z m396 -54 c19 -15
19 -15 -1 -15 -11 0 -26 7 -33 15 -17 20 7 20 34 0z m266 -20 c11 -13 8 -15
-14 -15 -25 0 -33 10 -19 23 10 11 19 8 33 -8z m-114 -30 c18 -15 18 -15 -5
-13 -14 2 -26 9 -29 16 -5 17 10 15 34 -3z m2947 -142 c-7 -3 -13 -18 -13 -34
0 -36 -9 -37 -40 -3 -28 29 -20 38 32 40 18 1 27 -1 21 -3z m7 -83 c0 -5 -4
-10 -10 -10 -5 0 -10 5 -10 10 0 6 5 10 10 10 6 0 10 -4 10 -10z m224 -256
c10 -14 16 -29 14 -35 -4 -11 -58 37 -58 51 0 20 28 9 44 -16z m53 -164 c15
-18 17 -40 3 -40 -11 0 -50 58 -50 74 0 9 28 -11 47 -34z m160 -106 c17 -17
16 -34 -2 -34 -17 0 -55 35 -55 51 0 13 39 2 57 -17z m-4479 -80 c25 -7 30
-48 9 -75 -18 -23 -83 -31 -102 -13 -13 14 -13 19 0 44 23 44 48 56 93 44z
m2290 -756 c-10 -6 -8 -8 5 -8 9 0 17 -7 17 -15 0 -21 18 -19 32 5 7 11 21 20
30 20 10 0 18 5 18 10 0 17 40 -13 40 -30 1 -8 15 -24 33 -35 22 -14 34 -30
37 -52 5 -31 5 -31 28 -13 12 10 22 23 22 29 0 6 18 11 40 11 l40 0 0 -45 0
-46 -34 6 c-30 6 -34 4 -40 -19 -4 -17 -13 -26 -26 -26 -19 0 -24 10 -21 38 1
6 -3 12 -9 12 -5 0 -10 -8 -10 -18 0 -42 -55 -57 -89 -23 -28 28 -30 18 -11
-42 13 -38 22 -52 36 -52 10 0 18 -6 17 -12 -2 -7 4 -13 12 -13 8 0 15 -4 15
-10 0 -5 13 -23 30 -40 l30 -30 6 25 c4 14 1 32 -6 40 -18 21 -5 48 20 40 29
-9 63 12 52 32 -12 21 -3 53 14 53 8 0 14 6 14 13 0 12 44 37 67 37 9 0 12 9
8 28 -3 15 -2 21 1 15 7 -15 130 -18 139 -4 3 5 -2 17 -11 25 -14 15 -12 16
23 16 28 0 34 -3 23 -10 -11 -7 -12 -14 -5 -25 15 -24 67 -52 72 -39 2 6 17 9
33 6 16 -2 27 -8 24 -13 -3 -5 0 -18 6 -30 12 -21 12 -21 40 6 18 17 30 23 34
16 11 -18 22 -13 35 16 12 26 14 26 25 10 8 -10 26 -17 45 -17 27 0 33 -5 47
-40 14 -33 20 -40 38 -35 11 2 15 2 9 -1 -24 -11 -13 -24 21 -24 18 0 52 -7
75 -15 23 -8 49 -11 59 -8 14 5 15 3 5 -8 -19 -20 -16 -29 12 -29 23 0 25 -4
25 -40 0 -29 4 -40 15 -40 9 0 15 9 15 21 0 28 22 20 38 -14 13 -27 115 -87
148 -87 9 0 24 -10 35 -22 l18 -23 1 23 c0 12 5 22 10 22 12 0 14 -77 1 -82
-4 -1 -11 -20 -15 -40 l-7 -38 46 0 c33 0 45 -4 45 -15 0 -27 23 -65 40 -65 9
0 22 10 28 23 l11 22 0 -22 c1 -20 6 -23 41 -23 29 0 40 -4 40 -15 0 -11 11
-15 40 -15 36 0 40 -2 40 -25 0 -24 3 -25 55 -25 l55 0 0 -32 c0 -52 11 -78
31 -78 11 0 19 -4 19 -10 0 -5 17 -10 38 -10 33 0 39 -4 49 -31 7 -17 17 -28
22 -24 16 9 13 25 -4 25 -18 0 -18 2 -3 35 11 25 28 34 28 14 0 -5 4 -8 9 -4
12 6 25 -31 16 -45 -3 -6 1 -7 9 -4 12 5 16 -1 16 -24 0 -17 -5 -32 -12 -34
-8 -3 -11 -24 -9 -61 1 -36 -2 -57 -8 -57 -6 0 -11 20 -11 45 0 32 -6 52 -20
67 -17 19 -20 19 -26 5 -4 -12 -20 -18 -53 -19 l-46 -1 43 -4 c39 -4 42 -6 42
-34 0 -27 -2 -29 -40 -29 l-40 0 0 -64 c0 -106 11 -186 26 -186 11 0 14 -19
14 -78 0 -79 16 -122 44 -122 17 0 36 -43 36 -80 0 -41 15 -76 50 -113 32 -34
37 -56 18 -75 -9 -9 -7 -12 10 -12 19 0 22 -6 22 -36 0 -45 19 -64 64 -64 33
0 36 2 36 30 0 29 18 44 21 18 4 -32 -4 -94 -12 -102 -13 -14 -11 -46 3 -46
27 0 58 -43 58 -82 0 -22 4 -37 9 -33 22 13 84 -166 100 -290 5 -44 17 -159
26 -255 9 -96 25 -249 35 -340 40 -332 52 -512 57 -845 4 -230 2 -361 -6 -405
-26 -149 -31 -174 -44 -214 -37 -104 -58 -186 -53 -195 4 -5 -1 -29 -9 -53 -9
-24 -25 -72 -36 -108 -31 -99 -51 -140 -82 -171 -29 -30 -79 -39 -92 -18 -5 7
-14 4 -26 -7 -23 -21 -24 -40 -4 -48 8 -3 15 -13 15 -23 0 -21 -51 -73 -71
-73 -14 0 -93 -79 -109 -110 -8 -16 -15 -17 -42 -9 -18 5 -34 9 -36 9 -2 0 -2
-19 -1 -43 3 -54 -6 -71 -31 -57 -10 5 -30 10 -44 10 -16 0 -26 6 -26 15 0 20
-14 19 -31 -1 -11 -14 -10 -19 8 -33 l21 -17 -21 -17 c-12 -9 -24 -17 -28 -17
-15 0 -46 37 -53 63 -8 35 -21 34 -43 -3 -9 -16 -20 -30 -24 -30 -4 0 -17 -15
-28 -34 -27 -43 -29 -122 -3 -129 10 -3 6 -5 -10 -6 -19 -1 -28 4 -28 14 0 14
-12 20 -21 10 -3 -2 -2 -35 2 -72 4 -37 3 -75 -2 -84 -6 -12 -4 -21 6 -29 8
-7 15 -23 15 -37 0 -36 -41 -193 -51 -193 -4 0 -16 -17 -26 -37 -9 -21 -23
-44 -30 -51 -23 -23 -35 -53 -28 -70 4 -10 -7 -27 -32 -49 l-38 -33 28 0 c22
0 27 -4 26 -22 0 -13 -3 -17 -6 -10 -2 7 -22 12 -44 12 -35 0 -39 3 -39 25 0
24 -3 25 -54 25 -49 0 -54 2 -60 25 -4 14 -10 25 -15 25 -5 0 -12 14 -16 30
-4 17 -11 27 -16 24 -14 -8 -59 4 -59 16 0 6 8 10 18 10 10 0 25 11 32 25 12
22 12 28 -3 42 -14 14 -20 15 -40 4 -13 -7 -31 -26 -41 -42 -15 -26 -15 -29
-2 -29 10 0 16 -9 16 -24 0 -19 -6 -25 -27 -28 -18 -2 -28 -9 -28 -19 0 -18
-22 -42 -47 -52 -21 -8 -24 -37 -4 -37 9 0 12 -8 8 -25 -5 -27 -22 -35 -22
-10 0 27 -18 16 -25 -15 -4 -17 -10 -28 -15 -25 -4 3 -7 -3 -6 -12 0 -9 -5
-18 -11 -20 -7 -3 -13 2 -13 11 0 21 -36 21 -44 0 -13 -34 -7 -64 14 -64 11 0
20 -4 20 -10 0 -5 9 -10 20 -10 15 0 20 -7 20 -27 l0 -26 -23 21 c-14 13 -43
25 -72 28 l-48 7 6 -42 c4 -33 2 -41 -8 -37 -8 3 -15 0 -18 -7 -2 -6 -6 -4
-10 6 -3 9 -2 17 3 17 6 0 10 5 10 12 0 6 -11 1 -24 -11 -14 -13 -30 -20 -36
-16 -9 5 -9 10 -1 14 12 8 3 81 -10 81 -5 0 -9 7 -9 15 0 8 -4 15 -10 15 -5 0
-10 -7 -10 -15 0 -8 -7 -15 -15 -15 -8 0 -15 -4 -15 -10 0 -5 -7 -10 -15 -10
-8 0 -15 -4 -15 -10 0 -5 -5 -10 -12 -10 -6 0 -19 -7 -29 -16 -15 -14 -18 -13
-30 16 -15 34 -44 37 -44 5 -1 -47 -47 -62 -80 -25 -14 15 -21 17 -32 9 -7 -6
-13 -18 -13 -25 0 -9 -11 -14 -29 -14 -17 0 -31 -6 -35 -16 -5 -13 -17 -16
-62 -12 -47 4 -57 2 -70 -16 -8 -11 -14 -28 -14 -38 0 -9 -6 -23 -13 -30 -8
-7 -16 -20 -20 -28 -3 -8 -3 9 0 38 6 55 -9 102 -33 102 -13 0 -44 -54 -44
-77 0 -7 -7 -13 -16 -13 -11 0 -14 6 -9 20 10 32 -4 43 -31 25 -23 -15 -24
-14 -24 8 0 13 6 29 12 35 10 10 10 15 -2 22 -21 13 -50 -23 -50 -62 0 -25 -3
-29 -22 -26 -13 2 -22 8 -21 14 1 7 -17 14 -40 17 -35 5 -44 3 -56 -13 -22
-32 -30 -23 -25 30 3 45 2 50 -16 50 -12 0 -20 -7 -20 -16 0 -22 -40 -75 -51
-69 -5 4 -9 15 -9 26 0 29 -17 23 -29 -12 -12 -35 -31 -30 -31 7 0 15 -4 23
-11 19 -6 -4 -31 1 -55 10 -25 9 -55 14 -68 11 -13 -3 -37 1 -54 10 -23 11
-40 13 -64 6 -21 -6 -39 -5 -49 1 -12 8 -26 5 -54 -12 -21 -12 -39 -21 -40
-19 -1 2 -10 18 -19 36 -16 31 -17 32 -41 16 -28 -18 -65 -11 -65 13 0 12 -7
14 -37 8 -21 -4 -39 -11 -41 -16 -2 -5 -10 -9 -17 -9 -8 0 -19 -10 -26 -21
-10 -19 -13 -20 -26 -6 -13 13 -13 18 2 41 16 24 16 26 1 32 -9 4 -25 -1 -35
-10 -27 -25 -82 -20 -114 9 -32 30 -31 28 -12 65 14 26 14 29 0 24 -8 -4 -15
-1 -15 5 0 6 -6 11 -13 11 -7 0 -17 10 -22 22 -6 12 -20 25 -33 28 -13 3 -23
8 -23 12 0 4 -2 15 -6 23 -3 9 -3 36 0 60 2 25 0 45 -5 45 -5 0 -34 -11 -64
-25 -30 -14 -61 -25 -70 -25 -8 0 -13 -4 -9 -9 3 -5 -4 -13 -16 -16 -24 -8
-106 -62 -114 -76 -18 -28 -74 4 -75 44 0 9 -3 17 -7 18 -43 4 -66 10 -85 23
-18 13 -19 16 -5 16 9 0 17 2 17 4 0 2 3 11 6 19 3 8 -5 24 -17 36 -13 12 -19
21 -15 21 4 0 -1 13 -10 30 -16 26 -16 32 -4 55 10 18 11 29 4 33 -14 9 -17
109 -4 117 18 11 10 35 -15 45 -23 9 -24 13 -19 53 5 33 2 47 -10 60 -9 9 -20
39 -23 68 -6 47 -4 52 23 74 l29 23 -27 13 c-30 13 -35 37 -16 69 11 17 8 24
-17 50 -20 21 -36 29 -50 26 -35 -9 -46 6 -39 53 4 23 14 50 23 58 14 15 13
16 -14 9 -17 -4 -66 -9 -109 -11 -63 -3 -84 0 -102 13 -13 9 -24 23 -24 30 0
14 -20 17 -20 2 0 -5 -11 -10 -25 -10 -13 0 -29 -8 -34 -17 -10 -17 -13 -16
-35 10 -14 15 -29 27 -34 27 -5 0 -12 9 -15 20 -3 11 -11 19 -18 18 -10 -2
-13 10 -14 42 0 39 -3 45 -22 48 -13 2 -23 -1 -23 -7 0 -12 -39 -15 -57 -3 -6
4 -14 24 -18 45 -7 35 -9 37 -46 37 -33 0 -39 -3 -40 -22 -1 -17 -4 -14 -12
12 -6 19 -17 39 -24 43 -7 4 -13 21 -13 37 0 16 -6 49 -14 72 -16 49 -24 85
-31 144 -3 22 -16 72 -31 110 -41 112 -54 157 -54 195 0 20 -7 42 -15 49 -9 7
-15 29 -15 54 0 22 -7 73 -15 111 -28 134 -17 481 25 775 5 36 21 155 35 265
14 110 33 247 41 305 8 58 20 141 25 185 12 92 12 92 34 205 8 47 20 119 25
160 6 41 12 84 14 95 3 11 10 47 16 80 13 68 33 110 67 142 14 14 23 34 23 53
0 26 3 30 19 25 10 -3 24 1 31 10 7 9 21 13 35 9 29 -7 41 12 17 27 -18 11
-18 13 6 38 13 14 29 25 36 24 6 -2 20 25 30 60 11 34 30 72 43 85 26 26 30
52 8 52 -20 0 -18 10 5 39 12 13 26 21 35 17 22 -8 38 31 32 81 -4 39 -3 44
13 40 12 -3 30 7 50 29 30 30 32 37 28 83 -4 43 -2 51 12 51 27 0 54 38 57 78
1 20 7 38 13 40 5 2 10 16 10 30 0 16 8 32 19 39 15 9 17 20 13 62 l-5 51 32
0 c29 0 31 2 31 36 0 19 5 44 11 55 16 31 -2 45 -55 41 -25 -2 -46 -8 -46 -13
0 -5 -13 -9 -30 -9 -16 0 -30 5 -30 10 0 6 -4 10 -10 10 -5 0 -10 -7 -10 -15
0 -16 -20 -19 -57 -9 -26 7 -31 32 -8 40 10 4 15 20 15 50 0 32 -4 44 -15 44
-11 0 -15 11 -15 40 l0 40 40 0 c36 0 40 3 40 25 0 14 5 25 10 25 6 0 10 -4
10 -10 0 -5 14 -10 30 -10 25 0 30 4 30 25 0 18 5 25 20 25 11 0 20 4 20 9 0
12 -26 32 -32 25 -3 -3 -8 11 -10 30 -3 28 -1 33 12 27 26 -14 121 -11 136 4
8 7 14 30 14 49 0 20 5 36 10 36 6 0 10 -4 10 -10 0 -5 14 -10 30 -10 20 0 30
-5 30 -15 0 -11 11 -15 38 -16 28 0 32 -2 17 -8 -17 -7 -16 -8 9 -13 35 -7 96
17 96 37 0 19 76 21 84 3 5 -10 8 -9 13 2 6 14 41 49 76 78 9 6 28 12 42 12
14 0 25 5 25 10 0 6 18 10 39 10 22 0 41 5 43 10 4 13 69 -7 80 -24 5 -7 8 -4
8 7 0 13 8 17 35 17 19 0 35 5 35 10 0 6 6 10 14 10 7 0 19 6 25 14 7 8 26 14
42 14 34 -1 79 35 79 64 0 14 8 18 40 18 33 0 40 3 40 20 0 17 7 20 40 20 25
0 40 -5 40 -12 1 -8 6 -6 14 4 10 13 15 15 25 5 9 -9 16 -9 30 0 11 7 23 8 32
2 22 -14 29 -11 39 16 l10 25 20 -20 c26 -26 53 -25 103 3 30 16 41 19 44 9 4
-10 64 -42 79 -42 11 0 74 64 74 76 0 8 9 14 20 14 24 0 70 21 70 32 0 4 6 8
14 8 8 0 16 6 19 13 3 9 10 9 33 -3 16 -8 32 -18 35 -22 7 -11 59 14 59 29 0
18 33 21 53 4 13 -11 15 -16 5 -23z m-3058 -86 c0 -12 -76 -72 -92 -72 -5 0
-8 9 -8 20 0 11 5 20 11 20 6 0 22 9 36 20 26 20 53 26 53 12z m3717 2 c-3 -3
-12 -4 -19 -1 -8 3 -5 6 6 6 11 1 17 -2 13 -5z m-1760 -160 c-3 -3 -12 -4 -19
-1 -8 3 -5 6 6 6 11 1 17 -2 13 -5z m-757 -170 c0 -15 -23 -44 -34 -44 -11 0
-6 31 7 45 16 19 27 19 27 -1z m-1545 -144 c3 -5 1 -10 -4 -10 -6 0 -11 5 -11
10 0 6 2 10 4 10 3 0 8 -4 11 -10z m5065 -65 c11 -13 8 -15 -14 -15 -16 0 -26
5 -26 15 0 8 6 15 14 15 7 0 19 -7 26 -15z m-5100 -30 c0 -14 -4 -25 -10 -25
-11 0 -14 33 -3 43 11 11 13 8 13 -18z m5283 -62 c-13 -2 -33 -2 -45 0 -13 2
-3 4 22 4 25 0 35 -2 23 -4z m-3987 -80 c-10 -10 -19 5 -10 18 6 11 8 11 12 0
2 -7 1 -15 -2 -18z m4227 -63 c3 -13 0 -20 -9 -20 -8 0 -14 9 -14 20 0 11 4
20 9 20 5 0 11 -9 14 -20z m37 -45 c0 -14 -4 -25 -10 -25 -5 0 -10 11 -10 25
0 14 5 25 10 25 6 0 10 -11 10 -25z m91 -48 c22 -14 25 -37 5 -37 -8 0 -22 -3
-32 -7 -14 -5 -16 -3 -10 12 4 11 1 22 -6 27 -10 8 -10 11 0 15 6 2 13 14 13
26 2 21 2 21 6 -1 3 -12 13 -28 24 -35z m-4331 33 c0 -5 -4 -10 -10 -10 -5 0
-10 5 -10 10 0 6 5 10 10 10 6 0 10 -4 10 -10z m-184 -837 c-10 -10 -19 5 -10
18 6 11 8 11 12 0 2 -7 1 -15 -2 -18z m4524 -124 c0 -32 -3 -39 -20 -39 -17 0
-20 7 -20 44 0 39 2 44 20 39 16 -4 20 -14 20 -44z m77 19 c-3 -8 -6 -5 -6 6
-1 11 2 17 5 13 3 -3 4 -12 1 -19z m23 -118 c0 -10 6 -21 13 -23 6 -3 2 -6
-11 -6 -25 -1 -38 20 -28 45 8 20 26 9 26 -16z m440 -1703 c0 -2 -7 -18 -16
-36 -12 -24 -13 -36 -5 -44 14 -14 15 -40 1 -32 -6 4 -17 -10 -26 -30 -10 -25
-20 -35 -32 -33 -14 3 -17 16 -18 74 -1 61 2 73 19 83 14 9 22 10 30 2 15 -15
27 -14 27 4 0 8 5 15 10 15 6 0 10 -2 10 -3z m80 -1 c0 -3 -4 -8 -10 -11 -5
-3 -10 -1 -10 4 0 6 5 11 10 11 6 0 10 -2 10 -4z m-4718 -1781 c-7 -37 -22
-41 -22 -6 0 20 5 31 14 31 9 0 12 -8 8 -25z m558 -704 c0 -6 -4 -13 -10 -16
-5 -3 -10 1 -10 9 0 9 5 16 10 16 6 0 10 -4 10 -9z m2780 -141 c0 -5 -9 -10
-21 -10 -11 0 -17 -4 -14 -10 9 -14 -19 -12 -33 2 -21 21 -13 28 28 28 22 0
40 -4 40 -10z m-435 -42 c24 -11 24 -12 9 -30 -16 -17 -16 -18 4 -18 12 0 22
-4 22 -8 0 -5 -17 -6 -37 -3 -34 6 -38 10 -41 39 -4 35 4 38 43 20z m-1565
-142 c0 -8 -15 -20 -32 -27 -18 -7 -36 -14 -40 -17 -5 -2 -8 8 -8 21 0 26 13
34 58 36 13 1 22 -5 22 -13z m-1280 -1255 c0 -11 12 -23 30 -31 37 -15 38 -23
4 -38 -30 -14 -48 -7 -86 37 -38 42 -35 51 12 51 32 0 40 -4 40 -19z m190 -77
c0 -9 11 -14 29 -14 28 0 91 -48 103 -80 3 -9 20 -17 38 -18 21 -2 40 -12 57
-32 14 -17 33 -30 44 -30 12 0 19 -7 19 -20 0 -11 18 -37 40 -59 22 -21 40
-44 40 -50 0 -6 6 -11 14 -11 8 0 23 -16 35 -35 12 -21 28 -35 39 -35 11 0 25
-7 32 -15 7 -8 9 -15 5 -15 -4 0 -2 -7 5 -15 7 -8 16 -15 21 -15 5 0 9 7 9 15
0 24 16 17 60 -26 24 -24 39 -47 36 -55 -5 -14 61 -64 84 -64 5 0 17 -17 25
-37 19 -46 30 -53 78 -53 20 0 37 -4 37 -10 0 -5 18 -10 40 -10 22 0 40 -4 40
-10 0 -5 18 -10 40 -10 22 0 40 -4 40 -10 0 -5 13 -7 29 -4 19 4 38 0 55 -11
15 -10 29 -15 33 -12 3 4 14 2 24 -4 13 -6 19 -6 19 1 0 5 4 10 9 10 12 0 71
-59 71 -71 0 -5 12 -9 26 -9 26 0 54 -20 54 -39 0 -6 18 -11 41 -11 23 0 55
-7 72 -15 18 -8 50 -15 72 -17 30 -2 42 -8 50 -25 5 -13 13 -23 17 -23 13 0 9
38 -4 43 -7 3 6 6 30 6 35 1 42 -2 42 -18 0 -16 11 -20 80 -26 58 -5 80 -11
80 -21 0 -8 8 -14 17 -14 9 0 24 -6 32 -14 17 -16 119 -24 139 -12 6 4 21 2
32 -4 17 -9 20 -8 21 12 0 19 3 16 14 -12 l13 -35 7 33 c9 39 20 41 34 5 l10
-28 0 30 c-2 53 -1 55 40 55 39 0 55 11 76 54 6 11 22 22 35 24 46 5 90 35 90
59 0 20 5 23 35 23 24 0 45 8 63 25 15 14 35 25 44 25 10 0 18 4 18 10 0 5 23
19 50 31 45 19 65 39 40 39 -5 0 -10 7 -10 16 0 14 8 16 58 11 31 -4 85 -9
119 -13 l62 -7 4 39 4 39 1 -42 c2 -31 -2 -43 -12 -43 -8 0 -21 -18 -30 -40
-9 -22 -20 -40 -26 -40 -5 0 -10 -18 -10 -40 l0 -40 -45 0 -45 0 0 -40 c0 -29
4 -40 15 -40 11 0 15 -11 15 -40 0 -41 -12 -58 -78 -104 l-32 -23 30 -13 c16
-7 30 -16 30 -20 0 -10 -47 -30 -70 -30 -29 0 -33 -17 -8 -34 l22 -15 -26 -20
c-22 -18 -27 -31 -33 -98 -7 -73 -15 -98 -42 -133 -6 -8 -13 -39 -14 -69 -2
-41 1 -55 14 -62 13 -8 17 -6 17 6 0 23 20 18 42 -10 26 -33 38 -32 38 5 0 28
2 30 40 30 l40 0 0 45 0 45 40 0 c22 0 40 4 40 9 0 15 53 91 64 92 35 3 91 -4
94 -12 2 -5 21 -9 43 -9 31 0 39 -4 39 -19 0 -10 3 -33 6 -50 5 -25 3 -31 -11
-31 -14 0 -16 -5 -9 -27 9 -35 6 -126 -6 -133 -4 -3 -11 -22 -15 -43 -4 -20
-10 -37 -14 -37 -11 0 -31 -72 -24 -83 3 -6 1 -7 -5 -3 -10 6 -30 -56 -24 -77
4 -12 -59 -120 -75 -130 -7 -4 -13 -14 -13 -22 0 -8 -9 -19 -20 -25 -12 -6
-20 -21 -20 -35 0 -14 -4 -25 -9 -25 -5 0 -14 -14 -21 -31 -7 -17 -18 -36 -25
-42 -20 -21 -65 -103 -65 -120 0 -10 -4 -17 -8 -17 -5 0 -23 -22 -41 -49 -17
-28 -44 -60 -59 -73 -66 -56 -252 -269 -306 -352 -23 -33 -44 -63 -47 -66 -3
-3 -21 -34 -40 -70 -19 -35 -50 -81 -70 -102 -20 -21 -34 -38 -31 -38 5 0 -41
-43 -74 -70 -11 -8 -24 -24 -30 -35 -6 -10 -26 -23 -45 -28 -19 -5 -36 -12
-39 -15 -3 -4 -14 -12 -25 -18 -11 -6 -24 -20 -30 -32 -5 -12 -19 -22 -30 -22
-23 0 -58 -72 -54 -111 5 -56 0 -69 -27 -69 -15 0 -23 -4 -19 -11 4 -6 -3 -21
-15 -34 -12 -13 -19 -28 -16 -33 3 -6 -2 -8 -14 -5 -15 4 -20 0 -20 -14 0 -11
-13 -37 -30 -58 -24 -30 -31 -34 -36 -21 -8 20 -40 21 -48 1 -4 -10 -20 -15
-51 -15 -45 0 -45 0 -45 -34 0 -19 -5 -36 -11 -38 -11 -4 -6 -16 19 -57 1 -3
9 4 16 15 14 18 15 17 30 -17 18 -42 7 -89 -39 -177 -32 -62 -35 -64 -90 -67
-45 -3 -55 7 -55 60 0 23 42 55 48 36 6 -17 22 -2 22 20 0 12 -5 19 -12 16 -7
-2 -30 2 -50 9 l-38 13 0 -34 c0 -23 -5 -35 -14 -35 -9 0 -12 -8 -9 -24 5 -23
2 -25 -29 -23 -28 2 -34 6 -30 19 2 10 0 18 -4 18 -5 0 -9 19 -8 43 0 23 -3
51 -7 63 -4 11 -3 41 3 67 8 37 6 50 -7 71 -18 28 -41 36 -32 12 3 -8 -1 -20
-9 -26 -8 -7 -14 -19 -14 -26 0 -9 -11 -14 -30 -14 -23 0 -30 4 -30 20 0 13
-7 20 -19 20 -11 0 -21 4 -23 10 -1 5 -15 11 -30 12 -16 1 -28 7 -28 14 0 6
-9 19 -20 29 -11 10 -20 29 -20 42 0 15 -7 27 -18 30 -10 2 -33 22 -51 44 -19
21 -40 39 -47 39 -8 0 -14 4 -14 9 0 5 -6 16 -14 24 -21 21 -84 121 -107 170
-10 23 -27 54 -37 68 -51 77 -72 108 -98 150 -16 25 -47 72 -68 105 -21 32
-63 96 -92 140 -30 45 -54 84 -54 87 0 23 -145 201 -273 336 -23 24 -49 54
-57 66 -8 13 -44 55 -80 94 -36 38 -70 76 -77 83 -6 7 -48 47 -92 88 -44 41
-81 81 -81 88 0 6 -6 12 -14 12 -21 0 -40 27 -24 33 8 4 7 6 -4 6 -13 1 -18 9
-18 31 0 17 -4 30 -9 30 -5 0 -12 45 -16 100 -6 84 -5 104 9 125 9 13 16 35
16 47 0 17 10 27 40 40 l39 16 4 -36 c4 -37 4 -37 5 6 2 35 5 42 22 42 17 0
19 3 11 19 -8 14 -7 22 3 30 7 6 15 9 18 6 3 -3 11 1 18 10 17 20 56 19 65 -2
7 -17 8 -16 15 2 5 11 9 37 9 58 1 26 5 37 17 37 12 0 15 11 13 53 -2 54 13
107 31 107 5 0 10 18 10 40 0 22 -4 40 -10 40 -5 0 -10 9 -10 20 0 11 5 20 10
20 6 0 10 9 10 20 0 22 -16 27 -23 8 -2 -7 -8 -9 -13 -5 -5 4 -3 11 3 15 17
11 -5 82 -25 82 -9 0 -12 6 -8 16 3 9 9 27 12 40 7 28 29 31 43 7 8 -15 10
-10 11 21 0 29 -3 37 -15 33 -17 -7 -28 8 -30 42 -1 14 -5 40 -9 57 -6 28 -4
32 24 44 38 16 38 22 -2 43 l-33 16 33 0 c31 1 32 2 32 45 0 39 -5 50 -40 84
-32 31 -40 46 -40 75 l0 37 45 0 c27 0 45 5 45 11 0 8 -14 10 -45 6 -36 -5
-45 -4 -45 8 0 8 9 15 20 15 25 0 26 16 3 29 -10 6 -13 11 -6 11 18 0 3 39
-18 45 -26 9 -24 35 3 35 21 0 21 1 -5 28 -29 30 -34 48 -16 54 17 6 -23 77
-43 78 -13 0 -18 8 -18 30 0 28 2 30 40 30 22 0 40 5 40 10 0 6 18 10 40 10
22 0 40 5 40 10 0 6 18 10 40 10 22 0 40 4 40 10 0 5 7 7 15 4 8 -4 15 -12 15
-20z m1626 -245 c8 -6 17 -9 21 -6 3 4 12 2 20 -4 18 -15 17 -68 -2 -75 -8 -4
-15 -12 -15 -20 0 -10 -12 -14 -40 -14 -36 0 -40 -2 -40 -25 0 -17 6 -25 17
-25 14 0 15 -2 4 -12 -11 -10 -14 -10 -18 0 -9 25 -34 11 -49 -28 -9 -22 -21
-40 -27 -40 -6 0 -21 -12 -33 -27 -19 -24 -24 -26 -38 -14 -9 7 -16 20 -16 27
0 8 -8 14 -19 14 -24 0 -43 23 -35 44 4 11 -1 19 -17 25 -13 5 -20 10 -14 10
5 1 -1 8 -14 17 -17 12 -21 22 -17 40 5 19 2 24 -11 24 -23 1 -74 52 -65 65
19 27 87 44 201 49 36 1 67 8 68 13 4 12 115 -18 139 -38z m1171 -244 c12 -12
13 -19 3 -30 -19 -23 -30 -18 -30 15 0 34 5 37 27 15z m113 -125 c0 -22 -4
-40 -10 -40 -5 0 -10 18 -10 40 0 22 5 40 10 40 6 0 10 -18 10 -40z m-1860
-70 c0 -5 -6 -10 -14 -10 -8 0 -18 5 -21 10 -3 6 3 10 14 10 12 0 21 -4 21
-10z m1653 -385 c-3 -9 -8 -14 -10 -11 -3 3 -2 9 2 15 9 16 15 13 8 -4z
m-1245 -2636 c-2 -6 -8 -10 -13 -10 -5 0 -11 4 -13 10 -2 6 4 11 13 11 9 0 15
-5 13 -11z m-153 -349 c3 -5 1 -10 -4 -10 -6 0 -11 5 -11 10 0 6 2 10 4 10 3
0 8 -4 11 -10z"/>
<path d="M6696 12431 c-3 -5 1 -14 9 -21 13 -10 15 -9 15 9 0 21 -14 28 -24
12z"/>
<path d="M4697 12226 c-6 -15 1 -26 15 -26 4 0 8 9 8 20 0 23 -15 27 -23 6z"/>
<path d="M4960 12230 c0 -5 5 -10 10 -10 6 0 10 5 10 10 0 6 -4 10 -10 10 -5
0 -10 -4 -10 -10z"/>
<path d="M4560 12059 c0 -11 5 -17 10 -14 6 3 10 1 10 -6 0 -7 8 -5 20 6 28
25 25 35 -10 35 -24 0 -30 -4 -30 -21z"/>
<path d="M8060 12050 c0 -5 5 -10 10 -10 6 0 10 5 10 10 0 6 -4 10 -10 10 -5
0 -10 -4 -10 -10z"/>
<path d="M8211 11897 c-12 -15 -5 -27 16 -27 7 0 13 9 13 20 0 23 -13 26 -29
7z"/>
<path d="M8481 11824 c0 -11 3 -14 6 -6 3 7 2 16 -1 19 -3 4 -6 -2 -5 -13z"/>
<path d="M4720 11664 c0 -8 5 -12 10 -9 6 3 10 10 10 16 0 5 -4 9 -10 9 -5 0
-10 -7 -10 -16z"/>
<path d="M8320 11669 c0 -5 5 -7 10 -4 6 3 10 8 10 11 0 2 -4 4 -10 4 -5 0
-10 -5 -10 -11z"/>
<path d="M8385 11610 c-3 -5 -1 -10 4 -10 6 0 11 5 11 10 0 6 -2 10 -4 10 -3
0 -8 -4 -11 -10z"/>
<path d="M8533 11560 c0 -25 2 -35 4 -22 2 12 2 32 0 45 -2 12 -4 2 -4 -23z"/>
<path d="M8545 11430 c3 -5 8 -10 11 -10 2 0 4 5 4 10 0 6 -5 10 -11 10 -5 0
-7 -4 -4 -10z"/>
<path d="M8480 11406 c0 -9 5 -16 10 -16 6 0 10 4 10 9 0 6 -4 13 -10 16 -5 3
-10 -1 -10 -9z"/>
<path d="M4480 11269 c0 -5 5 -7 10 -4 6 3 10 8 10 11 0 2 -4 4 -10 4 -5 0
-10 -5 -10 -11z"/>
<path d="M4429 11154 c-9 -11 -7 -14 14 -14 32 0 44 16 17 23 -10 3 -24 -1
-31 -9z"/>
<path d="M7336 11015 c-30 -26 -46 -31 -46 -17 0 14 -34 10 -52 -6 -10 -8 -18
-21 -18 -29 0 -8 -11 -26 -26 -41 l-25 -27 6 27 c4 15 3 33 -2 41 -7 13 -11
13 -30 -3 -13 -10 -24 -27 -26 -39 -2 -11 -6 -23 -9 -27 -4 -3 -4 -12 -1 -20
4 -12 -23 -83 -58 -146 -5 -10 -9 -27 -9 -37 0 -21 -16 -35 -40 -36 -8 0 -14
-6 -12 -13 1 -7 -9 -18 -23 -24 -14 -6 -25 -17 -25 -24 0 -6 -7 -14 -15 -18
-8 -3 -15 -15 -15 -26 0 -11 -7 -23 -15 -26 -11 -5 -15 -22 -15 -64 0 -38 -4
-60 -12 -63 -10 -3 -10 -9 -1 -28 13 -24 12 -95 -2 -215 -5 -41 -3 -64 4 -68
7 -5 6 -15 -5 -32 -18 -27 -21 -123 -4 -134 6 -3 14 -65 19 -136 10 -144 22
-203 45 -216 9 -5 16 -23 16 -41 0 -18 7 -40 14 -50 13 -17 15 -17 30 5 9 13
16 43 16 69 l0 46 60 12 c33 7 60 15 60 19 0 4 13 15 30 24 26 15 29 22 32 75
l3 58 33 -3 c55 -6 126 -57 157 -113 15 -28 35 -55 46 -62 10 -6 19 -15 19
-19 0 -10 60 -68 71 -68 5 0 9 -11 9 -24 0 -17 10 -31 30 -43 24 -14 30 -24
30 -53 0 -50 16 -66 85 -86 33 -9 65 -20 70 -24 10 -7 227 -24 290 -23 101 2
255 58 255 93 0 31 33 80 55 80 18 1 19 1 3 11 -10 5 -18 16 -18 23 0 15 65
37 86 29 8 -3 14 0 14 6 0 6 8 11 19 11 10 0 32 7 47 15 16 8 39 15 52 15 12
0 30 8 41 19 16 16 17 25 9 70 -7 40 -6 57 7 80 18 35 32 201 17 201 -5 0 -13
11 -16 25 -4 14 -13 25 -21 25 -11 0 -15 12 -15 45 0 25 -4 45 -10 45 -15 0
-7 23 15 44 14 13 16 20 8 23 -17 6 -16 21 1 39 19 18 54 18 73 -1 8 -9 28
-19 44 -22 16 -3 29 -9 29 -13 0 -3 14 -5 30 -2 28 4 30 7 30 46 0 23 -5 47
-12 54 -9 9 -8 12 4 12 11 0 18 14 23 47 4 26 13 59 20 73 16 32 13 85 -7 107
-9 10 -18 34 -22 54 -4 21 -13 43 -22 50 -19 15 -44 74 -44 103 0 25 -32 48
-55 40 -11 -5 -18 0 -21 13 -4 12 -20 25 -42 32 -42 14 -106 67 -97 81 9 15
-17 24 -26 9 -7 -11 -10 -9 -15 8 -6 23 -55 38 -66 20 -5 -8 -9 -6 -13 5 -4 9
-37 26 -76 38 -38 12 -69 26 -69 31 0 12 -37 11 -45 -1 -8 -13 -39 -8 -89 14
-38 17 -63 14 -36 -5 17 -11 -40 -4 -105 14 -58 15 -135 16 -177 1 -21 -7 -40
-9 -43 -5 -2 5 -24 11 -47 15 -23 4 -51 15 -61 24 -16 14 -36 17 -105 15 -57
-1 -88 -6 -93 -15 -5 -7 -9 -9 -9 -3 0 5 -5 4 -12 -3 -16 -16 -31 -15 -25 2 5
12 -10 36 -22 36 -4 0 -19 -11 -35 -25z m611 -541 c-3 -3 -12 -4 -19 -1 -8 3
-5 6 6 6 11 1 17 -2 13 -5z m111 -23 c39 -2 25 -29 -20 -40 -43 -10 -43 -10
17 -7 33 2 52 1 43 -1 -10 -3 -18 -9 -18 -14 0 -5 -18 -9 -40 -9 -53 0 -51
-18 3 -23 23 -2 -48 -2 -158 1 -138 3 -205 8 -215 17 -8 7 -21 14 -28 16 -9 3
-6 13 12 34 14 17 26 25 26 19 0 -10 94 -4 105 7 4 5 125 4 273 0z m160 -51
c12 0 22 -4 22 -10 0 -18 -77 -12 -84 6 -5 13 -2 15 16 10 13 -3 33 -6 46 -6z
m-282 -145 c1 -8 -2 -15 -7 -15 -5 0 -9 10 -9 22 0 23 12 17 16 -7z m41 -109
c1 -1 0 -12 -4 -24 -4 -19 -12 -22 -53 -22 -105 0 -139 23 -69 47 27 9 114 9
126 -1z m553 -1 c0 -8 -2 -15 -4 -15 -2 0 -6 7 -10 15 -3 8 -1 15 4 15 6 0 10
-7 10 -15z m-1327 -195 c6 -24 -27 -65 -59 -74 -18 -6 -22 -2 -26 22 -5 33 0
54 11 47 5 -2 17 2 27 10 27 20 41 18 47 -5z m671 -15 c30 -22 8 -37 -42 -29
-60 9 -54 39 8 43 8 0 24 -6 34 -14z m-324 -10 c7 -8 9 -23 6 -32 -4 -10 -2
-46 5 -81 17 -82 8 -92 -58 -67 -59 22 -110 58 -118 85 -10 32 75 110 119 110
19 0 39 -7 46 -15z m670 -174 c0 -16 -78 -76 -102 -79 -26 -3 -27 -2 -17 28
15 43 51 68 88 62 17 -2 31 -7 31 -11z m-1100 -101 c0 -5 -7 -10 -15 -10 -8 0
-15 5 -15 10 0 6 7 10 15 10 8 0 15 -4 15 -10z"/>
<path d="M5682 11004 c-10 -7 -37 -13 -58 -12 -250 4 -396 3 -429 -5 -22 -5
-59 -9 -82 -9 -23 1 -46 -5 -52 -12 -7 -8 -20 -12 -30 -9 -10 3 -32 -2 -47
-10 -30 -15 -80 -16 -126 -3 -15 4 -34 3 -44 -2 -12 -7 -25 -6 -40 0 -16 7
-47 4 -117 -12 -82 -19 -96 -25 -99 -44 -2 -16 -9 -21 -31 -19 -21 1 -27 -3
-27 -19 0 -11 -16 -36 -35 -54 -20 -18 -42 -48 -50 -67 -8 -18 -21 -39 -29
-46 -8 -7 -18 -26 -21 -43 -4 -18 -15 -32 -26 -35 -21 -6 -25 -18 -9 -28 6 -4
8 -11 4 -16 -3 -5 -9 -7 -14 -4 -4 3 -11 -12 -15 -33 -4 -20 -11 -41 -15 -47
-15 -18 -24 -155 -11 -155 20 0 41 -27 41 -53 0 -14 5 -27 11 -29 9 -3 9 -10
0 -27 -7 -12 -11 -35 -9 -50 1 -16 -5 -35 -15 -45 -9 -10 -17 -22 -17 -27 0
-12 103 -9 112 4 4 6 20 2 41 -11 25 -14 37 -17 40 -9 2 7 7 9 11 5 4 -3 3
-15 -3 -26 -6 -12 -11 -46 -11 -76 0 -43 -4 -56 -15 -56 -11 0 -12 -5 -6 -22
5 -13 13 -22 19 -21 15 3 22 -102 11 -169 -9 -53 -8 -62 8 -74 10 -7 23 -14
29 -14 7 0 26 -14 43 -32 32 -33 88 -57 131 -58 19 0 22 -2 11 -9 -12 -8 -9
-11 12 -16 15 -4 32 -16 38 -26 5 -11 16 -19 24 -19 7 0 15 -6 18 -12 5 -17
228 -13 238 4 6 9 11 9 21 0 8 -6 51 -11 101 -11 92 0 157 -8 157 -21 0 -13
-51 -30 -118 -40 -37 -5 -68 -14 -70 -20 -2 -5 -8 -7 -14 -4 -16 10 -128 -17
-128 -32 0 -19 54 -27 180 -26 122 1 311 31 318 51 2 6 10 11 18 11 11 0 99
54 114 71 3 3 21 17 41 32 38 29 55 62 37 73 -6 4 -14 0 -19 -7 -8 -11 -12
-10 -24 5 -19 26 -19 35 3 43 31 12 62 59 62 94 0 17 -37 9 -83 -17 -59 -32
-97 -43 -177 -49 -36 -3 -73 -8 -82 -11 -14 -4 -16 -1 -11 12 5 14 3 15 -15 5
-27 -15 -32 -14 -32 4 0 8 9 15 20 15 12 0 33 6 48 14 16 8 35 14 42 13 24 -2
90 15 90 22 0 4 13 6 29 3 16 -2 32 1 35 7 4 6 21 11 38 11 18 0 36 7 44 18
12 16 13 15 14 -5 0 -14 6 -23 15 -23 8 0 15 9 15 20 0 11 6 20 13 21 38 1
103 12 112 18 30 23 97 41 115 31 16 -8 17 -15 9 -45 -15 -52 3 -71 36 -39 12
13 19 14 30 4 12 -10 18 -10 31 1 9 7 34 12 60 10 38 -2 44 0 44 18 0 16 -8
21 -42 24 l-43 4 48 1 c40 2 52 7 74 32 18 22 31 29 44 25 13 -4 19 -1 19 9 0
9 -8 16 -19 16 -14 0 -18 5 -14 21 4 14 8 17 13 9 5 -8 10 -3 14 13 7 31 -11
87 -30 87 -8 0 -14 7 -14 15 0 14 12 19 33 16 4 0 7 17 7 38 0 29 5 41 18 44
16 4 16 5 -1 6 -24 1 -79 52 -73 68 3 7 -3 19 -14 25 -22 14 -26 38 -9 55 14
14 8 89 -7 86 -14 -3 -27 71 -14 75 6 2 7 9 3 15 -8 12 -14 68 -16 134 0 21
-6 33 -18 36 -13 4 -18 15 -17 44 0 36 -14 79 -31 93 -4 3 -12 27 -19 53 -12
48 -76 137 -97 137 -6 0 -26 16 -45 35 -19 19 -42 35 -52 35 -11 0 -31 6 -46
14 -41 21 -107 26 -130 10z m-369 -513 c6 -6 19 -11 28 -11 10 0 19 -4 21 -9
2 -5 25 -12 52 -14 26 -3 53 -10 58 -15 13 -13 2 -32 -18 -32 -8 0 -14 -6 -14
-14 0 -20 -73 -35 -197 -41 -130 -6 -202 -14 -225 -27 -11 -5 -25 -5 -37 2
-14 7 -21 6 -24 -3 -3 -8 -9 -6 -19 7 -11 14 -23 17 -43 14 -50 -10 -108 26
-112 69 -3 28 18 40 82 45 27 3 51 10 53 16 4 14 39 16 44 3 2 -6 23 -6 53 0
28 6 69 8 93 5 31 -4 48 -2 58 9 17 16 130 13 147 -4z m12 -331 c0 -23 -4 -25
-63 -30 -61 -5 -92 2 -92 20 0 14 82 39 120 37 30 -2 35 -5 35 -27z m-900 -12
c-11 -6 -23 -16 -26 -21 -4 -5 -12 -6 -18 -2 -19 11 7 35 38 35 24 -1 25 -1 6
-12z m1812 -74 c-3 -3 -12 -4 -19 -1 -8 3 -5 6 6 6 11 1 17 -2 13 -5z m-902
-98 c12 -8 16 -19 12 -31 -6 -14 -14 -16 -45 -10 -47 8 -59 20 -42 40 15 19
50 19 75 1z m305 -31 c14 -13 41 -38 61 -57 l35 -33 -18 -30 c-18 -31 -70 -65
-100 -65 -9 0 -20 -4 -23 -10 -9 -15 -62 -12 -68 4 -3 7 1 31 8 52 8 22 14 66
15 100 0 33 3 64 7 68 12 12 56 -4 83 -29z m331 19 c10 -9 15 -22 12 -30 -3
-8 0 -14 6 -14 6 0 11 -4 11 -10 0 -17 -28 -11 -56 13 -18 16 -25 30 -21 40 8
21 25 22 48 1z m-974 -173 c16 14 34 1 63 -47 20 -35 20 -35 0 -29 -12 4 -20
2 -20 -6 0 -8 -4 -8 -12 -2 -7 6 -25 13 -40 17 -16 3 -28 13 -28 20 0 9 -7 12
-21 9 -19 -5 -20 -4 -10 15 13 24 32 33 45 21 5 -5 15 -4 23 2z m268 -180 c-3
-5 3 -12 12 -14 15 -4 15 -5 2 -6 -9 0 -22 6 -29 14 -10 12 -9 15 4 15 10 0
15 -4 11 -9z m310 -81 c3 -5 -1 -10 -10 -10 -9 0 -13 5 -10 10 3 6 8 10 10 10
2 0 7 -4 10 -10z m55 -16 c0 -2 -7 -4 -15 -4 -8 0 -15 4 -15 10 0 5 7 7 15 4
8 -4 15 -8 15 -10z"/>
<path d="M8160 10970 c0 -5 5 -10 11 -10 5 0 7 5 4 10 -3 6 -8 10 -11 10 -2 0
-4 -4 -4 -10z"/>
<path d="M4400 10010 c0 -5 5 -10 11 -10 5 0 7 5 4 10 -3 6 -8 10 -11 10 -2 0
-4 -4 -4 -10z"/>
<path d="M7202 9645 c0 -16 2 -22 5 -12 2 9 2 23 0 30 -3 6 -5 -1 -5 -18z"/>
<path d="M7005 9380 c3 -5 12 -7 20 -3 21 7 19 13 -6 13 -11 0 -18 -4 -14 -10z"/>
<path d="M7020 9340 c0 -5 5 -10 10 -10 6 0 10 5 10 10 0 6 -4 10 -10 10 -5 0
-10 -4 -10 -10z"/>
<path d="M7072 9033 c3 -5 10 -21 18 -38 12 -28 16 -30 71 -30 35 0 59 4 59
11 0 20 -25 34 -62 34 -27 0 -38 4 -38 15 0 9 -10 15 -26 15 -14 0 -24 -3 -22
-7z"/>
<path d="M5870 9000 c0 -5 5 -10 10 -10 6 0 10 5 10 10 0 6 -4 10 -10 10 -5 0
-10 -4 -10 -10z"/>
<path d="M5831 8961 c-8 -5 -9 -11 -3 -15 5 -3 12 1 16 9 6 17 6 18 -13 6z"/>
<path d="M7120 8935 c0 -26 -2 -25 85 -29 17 -1 40 -5 52 -9 26 -9 37 5 29 39
-7 28 -40 32 -73 9 -21 -15 -53 -11 -53 6 0 5 -9 9 -20 9 -15 0 -20 -7 -20
-25z"/>
<path d="M5699 8667 c-3 -39 0 -62 8 -69 8 -7 11 -24 7 -47 -4 -25 1 -51 15
-84 12 -27 21 -59 21 -73 0 -14 10 -30 25 -40 32 -21 32 -44 1 -44 -29 0 -38
-10 -27 -29 18 -28 -33 -80 -70 -73 -4 1 -9 -12 -13 -29 -4 -23 -15 -34 -48
-49 -24 -11 -58 -20 -77 -20 -26 0 -43 -9 -75 -41 -22 -23 -64 -53 -92 -66
-30 -14 -56 -34 -62 -49 -7 -13 -16 -24 -22 -24 -5 0 -10 -6 -10 -12 0 -7 -25
-39 -55 -70 -30 -32 -62 -73 -71 -90 -29 -56 -92 -135 -126 -159 -34 -23 -67
-58 -68 -71 0 -5 7 -8 15 -8 16 0 35 -30 35 -57 0 -10 7 -31 15 -47 19 -37 19
-36 -10 -68 -14 -15 -25 -34 -25 -41 0 -17 50 -30 50 -13 0 6 6 4 13 -5 7 -9
22 -19 34 -23 19 -6 22 -13 18 -41 -2 -20 3 -48 13 -67 9 -18 16 -39 17 -46 0
-7 9 -23 20 -35 l19 -23 42 57 c68 92 106 124 165 141 50 14 56 13 86 -5 18
-10 33 -25 33 -33 0 -8 8 -14 18 -14 22 0 55 -60 46 -83 -5 -14 -1 -17 24 -15
51 4 82 -39 45 -61 -15 -9 -12 -10 15 -11 l33 0 -7 -50 c-7 -55 -14 -51 76
-55 16 -1 24 -7 23 -16 -1 -8 6 -25 16 -38 16 -21 57 -37 155 -60 23 -5 31
-15 44 -54 11 -35 21 -49 39 -53 13 -4 27 -12 31 -18 4 -7 24 -20 44 -29 32
-15 39 -24 44 -59 6 -33 13 -43 36 -52 25 -9 41 -35 43 -70 0 -5 11 -10 25
-12 14 -2 42 -6 64 -9 22 -3 44 -1 52 6 17 14 37 1 31 -21 -5 -20 22 -33 43
-20 7 5 22 3 32 -3 16 -10 22 -9 33 7 11 15 17 16 28 7 11 -9 17 -8 27 4 7 8
27 15 44 15 25 0 34 7 47 32 11 23 27 36 57 46 23 7 56 27 74 43 60 57 149 88
161 57 4 -9 8 -10 14 -2 11 15 58 26 111 28 24 1 46 6 50 12 4 6 24 14 45 18
29 5 37 12 38 29 1 51 117 90 175 59 20 -11 22 -9 28 46 5 38 14 64 29 80 13
14 22 36 22 55 0 25 4 32 20 32 28 0 45 13 45 36 0 10 3 19 8 19 4 0 12 10 17
23 6 12 20 26 33 32 12 5 22 13 22 17 0 5 7 8 15 8 8 0 15 -8 15 -17 0 -15 2
-16 9 -3 6 8 8 17 5 21 -2 4 9 9 24 12 19 4 36 -2 60 -19 17 -14 32 -29 32
-33 0 -5 18 -21 39 -36 27 -18 46 -25 60 -20 12 3 19 10 16 15 -8 13 15 24 27
12 16 -16 38 -2 38 23 0 13 5 27 10 30 6 3 10 28 10 55 0 57 7 80 25 80 14 0
31 37 26 55 -2 6 3 49 9 98 12 78 11 89 -4 105 -9 10 -16 24 -16 30 0 7 -4 12
-10 12 -5 0 -10 14 -10 31 0 33 -37 119 -52 119 -4 0 -8 10 -8 23 0 25 -44 77
-65 77 -8 0 -15 5 -15 11 0 5 -8 9 -17 8 -19 -3 -52 12 -75 34 -21 20 -81 53
-110 60 -15 4 -48 25 -73 47 -25 22 -52 40 -60 40 -7 0 -15 7 -19 15 -3 8 -14
15 -24 15 -10 0 -27 7 -38 15 -10 8 -28 15 -40 15 -25 0 -53 23 -80 68 -12 19
-25 32 -29 30 -5 -1 -12 10 -16 25 -6 20 -4 30 7 34 8 3 14 17 14 32 0 20 8
31 38 46 45 24 54 33 68 65 11 25 12 216 1 227 -4 3 -12 -7 -19 -21 -9 -21 -9
-32 0 -47 16 -26 16 -26 -20 -26 -20 0 -50 11 -76 28 -24 16 -57 29 -73 29
-17 0 -43 8 -57 19 -15 10 -44 24 -64 30 -27 9 -38 18 -38 32 0 13 -7 19 -25
20 -14 1 -29 2 -33 3 -11 1 -34 26 -48 51 -12 21 -54 33 -54 16 0 -6 -25 -25
-55 -42 -30 -17 -57 -34 -60 -39 -7 -11 -143 -12 -150 0 -3 5 -17 10 -31 10
-13 0 -33 5 -44 12 -15 9 -24 9 -42 0 -13 -7 -45 -14 -71 -15 -27 -2 -52 -9
-56 -16 -6 -8 -24 -10 -62 -6 -74 9 -102 21 -128 56 -22 29 -24 30 -42 13 -10
-9 -19 -23 -19 -31 0 -9 -14 -13 -46 -13 -25 0 -54 -4 -64 -10 -28 -15 -129
-40 -181 -46 -39 -4 -50 0 -77 24 -18 17 -32 39 -33 53 0 13 -4 33 -8 44 -6
14 -10 4 -12 -38z m1030 -786 c23 -15 -9 -40 -42 -34 -20 4 -27 1 -27 -11 0
-19 -10 -20 -44 -4 -21 9 -29 8 -45 -6 -10 -9 -25 -14 -35 -10 -9 3 -27 -1
-41 -10 -22 -14 -25 -14 -39 0 -21 21 -20 54 2 56 63 5 123 16 130 22 9 9 126
7 141 -3z m91 0 c0 -6 -4 -13 -10 -16 -5 -3 -10 1 -10 9 0 9 5 16 10 16 6 0
10 -4 10 -9z m-340 -521 c0 -24 18 -26 35 -3 11 15 19 15 71 4 63 -13 125 -38
135 -54 4 -5 15 -4 29 3 27 14 124 5 138 -13 10 -13 -2 -58 -15 -56 -16 1 -48
18 -35 18 17 1 15 21 -3 21 -12 0 -13 -9 -8 -45 6 -44 -9 -81 -28 -69 -5 3
-19 0 -31 -7 -12 -6 -53 -13 -91 -14 -38 -2 -74 -8 -80 -14 -14 -14 -77 -15
-77 -1 0 6 -9 10 -20 10 -11 0 -20 -4 -20 -10 0 -15 -22 -12 -68 10 -22 11
-46 20 -52 20 -5 0 -10 9 -10 19 0 11 -5 21 -11 23 -8 3 -10 16 -5 41 7 36 26
52 26 22 0 -8 4 -15 10 -15 10 0 7 64 -5 93 -5 13 -2 17 14 17 12 0 21 5 21
10 0 6 18 10 40 10 33 0 40 -3 40 -20z m-143 -23 c-6 -12 -12 -28 -12 -36 0
-8 -6 -16 -13 -19 -14 -4 -17 34 -2 43 6 3 10 15 10 25 0 13 5 17 15 14 12 -5
12 -10 2 -27z"/>
<path d="M6587 7260 c8 -29 24 -36 39 -15 11 15 23 16 93 10 71 -6 81 -5 81 9
0 14 -16 16 -109 16 -104 0 -109 -1 -104 -20z"/>
<path d="M6248 8633 c7 -3 16 -2 19 1 4 3 -2 6 -13 5 -11 0 -14 -3 -6 -6z"/>
<path d="M4640 7484 c0 -8 5 -12 10 -9 6 4 8 11 5 16 -9 14 -15 11 -15 -7z"/>
<path d="M4750 7430 c0 -5 7 -10 15 -10 8 0 15 5 15 10 0 6 -7 10 -15 10 -8 0
-15 -4 -15 -10z"/>
<path d="M4720 7370 c0 -5 5 -10 11 -10 5 0 7 5 4 10 -3 6 -8 10 -11 10 -2 0
-4 -4 -4 -10z"/>
<path d="M5291 6867 c-20 -10 -28 -22 -18 -29 7 -5 67 23 67 31 0 14 -19 14
-49 -2z"/>
<path d="M7840 6789 c0 -5 5 -7 10 -4 6 3 10 8 10 11 0 2 -4 4 -10 4 -5 0 -10
-5 -10 -11z"/>
<path d="M7400 6700 c0 -11 5 -20 10 -20 6 0 10 9 10 20 0 11 -4 20 -10 20 -5
0 -10 -9 -10 -20z"/>
<path d="M7905 6660 c-3 -6 0 -17 8 -25 13 -13 16 -13 21 1 10 27 -15 47 -29
24z"/>
<path d="M7425 6630 c3 -5 8 -10 11 -10 2 0 4 5 4 10 0 6 -5 10 -11 10 -5 0
-7 -4 -4 -10z"/>
<path d="M7425 6570 c-3 -5 -1 -10 4 -10 6 0 11 5 11 10 0 6 -2 10 -4 10 -3 0
-8 -4 -11 -10z"/>
<path d="M4880 4171 c0 -6 -7 -11 -15 -11 -8 0 -15 -6 -15 -14 0 -7 7 -19 15
-26 13 -11 15 -8 15 13 0 14 5 27 12 29 9 3 9 6 0 12 -7 4 -12 2 -12 -3z"/>
<path d="M7145 3890 c-3 -5 -1 -10 4 -10 6 0 11 5 11 10 0 6 -2 10 -4 10 -3 0
-8 -4 -11 -10z"/>
<path d="M6420 1620 c6 -11 17 -20 25 -20 8 0 15 9 15 20 0 15 -7 20 -25 20
-23 0 -24 -2 -15 -20z"/>
<path d="M6430 1325 c0 -25 5 -45 10 -45 6 0 10 20 10 45 0 25 -4 45 -10 45
-5 0 -10 -20 -10 -45z"/>
<path d="M6384 1329 c-3 -6 -1 -16 5 -22 8 -8 11 -5 11 11 0 24 -5 28 -16 11z"/>
<path d="M6145 1210 c-3 -5 -1 -10 4 -10 6 0 11 5 11 10 0 6 -2 10 -4 10 -3 0
-8 -4 -11 -10z"/>
<path d="M6580 14786 c0 -8 14 -19 31 -25 28 -9 30 -9 18 5 -21 25 -49 37 -49
20z"/>
<path d="M6790 14782 c0 -12 19 -26 26 -19 2 2 -2 10 -11 17 -9 8 -15 8 -15 2z"/>
<path d="M6733 14645 c-19 -21 -16 -24 11 -12 13 7 22 15 20 19 -7 11 -17 9
-31 -7z"/>
<path d="M8675 14130 c10 -11 22 -20 27 -20 5 0 33 -22 61 -50 28 -27 55 -50
59 -50 3 0 14 -8 23 -17 16 -16 17 -15 14 2 -2 10 -44 50 -94 87 -88 67 -125
87 -90 48z"/>
<path d="M9091 13560 c21 -37 24 -39 31 -20 10 26 -10 60 -35 60 -17 0 -17 -3
4 -40z"/>
<path d="M9127 13513 c-10 -9 -9 -23 2 -23 5 0 11 7 15 15 5 15 -5 20 -17 8z"/>
<path d="M9290 13171 c0 -5 5 -13 10 -16 6 -3 10 -2 10 4 0 5 -4 13 -10 16 -5
3 -10 2 -10 -4z"/>
<path d="M9310 13131 c0 -5 5 -13 10 -16 6 -3 10 -2 10 4 0 5 -4 13 -10 16 -5
3 -10 2 -10 -4z"/>
<path d="M9462 12765 c0 -16 2 -22 5 -12 2 9 2 23 0 30 -3 6 -5 -1 -5 -18z"/>
<path d="M9436 12694 c-6 -24 -2 -44 8 -33 9 11 15 59 7 59 -5 0 -12 -12 -15
-26z"/>
<path d="M3473 9080 c-12 -5 -30 -22 -39 -37 -10 -15 -24 -34 -32 -40 -9 -7
-16 -27 -18 -45 -3 -42 14 -170 24 -180 13 -13 52 4 52 23 0 21 16 26 23 7 3
-9 9 -7 19 6 13 17 20 17 67 7 45 -9 56 -9 79 6 66 43 68 72 11 159 -32 50
-49 66 -89 83 -53 23 -64 24 -97 11z"/>
</g>
</svg>
